<?xml version="1.0" encoding="UTF-8"?>
<svg xmlns="http://www.w3.org/2000/svg" xmlns:xlink="http://www.w3.org/1999/xlink"
     width="1831" height="619" viewBox="0 0 1831 619">
<defs>
</defs>
<rect x="0" y="0" width="1831" height="619" fill="#2b2b2b" />
<text x="60.0" y="30.0" font-size="24.0" fill="#ffffff" font-family="'Helvetica Neue', Helvetica, Arial, sans-serif" font-weight="bold" class="nf-metro-title">nf-core/rnaseq</text>
<rect x="22.0" y="85.0" width="772.5" height="154.0685400921536" rx="8" ry="8" fill="#373737" stroke="#595959" stroke-width="1.0" />
<circle cx="33.0" cy="70.0" r="11" fill="#333333" class="nf-metro-section-num-circle" />
<text x="33.0" y="70.0" font-size="12" fill="#ffffff" font-family="'Helvetica Neue', Helvetica, Arial, sans-serif" font-weight="bold" text-anchor="middle" dy="0.3em">1</text>
<text x="49.0" y="70.0" font-size="16.0" fill="#aaaaaa" font-family="'Helvetica Neue', Helvetica, Arial, sans-serif" font-weight="bold" dy="0.3em" class="nf-metro-section-label">Pre-processing</text>
<rect x="852.5" y="85.0" width="655.0" height="197.0" rx="8" ry="8" fill="#373737" stroke="#595959" stroke-width="1.0" />
<circle cx="863.5" cy="70.0" r="11" fill="#333333" class="nf-metro-section-num-circle" />
<text x="863.5" y="70.0" font-size="12" fill="#ffffff" font-family="'Helvetica Neue', Helvetica, Arial, sans-serif" font-weight="bold" text-anchor="middle" dy="0.3em">2</text>
<text x="879.5" y="70.0" font-size="16.0" fill="#aaaaaa" font-family="'Helvetica Neue', Helvetica, Arial, sans-serif" font-weight="bold" dy="0.3em" class="nf-metro-section-label">Genome alignment &amp; quantification</text>
<rect x="852.5" y="325.0" width="420.0" height="123.0" rx="8" ry="8" fill="#373737" stroke="#595959" stroke-width="1.0" />
<circle cx="863.5" cy="310.0" r="11" fill="#333333" class="nf-metro-section-num-circle" />
<text x="863.5" y="310.0" font-size="12" fill="#ffffff" font-family="'Helvetica Neue', Helvetica, Arial, sans-serif" font-weight="bold" text-anchor="middle" dy="0.3em">3</text>
<text x="879.5" y="310.0" font-size="16.0" fill="#aaaaaa" font-family="'Helvetica Neue', Helvetica, Arial, sans-serif" font-weight="bold" dy="0.3em" class="nf-metro-section-label">Pseudo-alignment &amp; quantification</text>
<rect x="1557.5" y="85.0" width="214.0" height="270.0" rx="8" ry="8" fill="#373737" stroke="#595959" stroke-width="1.0" />
<circle cx="1568.5" cy="70.0" r="11" fill="#333333" class="nf-metro-section-num-circle" />
<text x="1568.5" y="70.0" font-size="12" fill="#ffffff" font-family="'Helvetica Neue', Helvetica, Arial, sans-serif" font-weight="bold" text-anchor="middle" dy="0.3em">4</text>
<text x="1584.5" y="70.0" font-size="16.0" fill="#aaaaaa" font-family="'Helvetica Neue', Helvetica, Arial, sans-serif" font-weight="bold" dy="0.3em" class="nf-metro-section-label">Post-processing</text>
<rect x="852.5" y="485.0" width="919.0" height="110.0" rx="8" ry="8" fill="#373737" stroke="#595959" stroke-width="1.0" />
<circle cx="863.5" cy="470.0" r="11" fill="#333333" class="nf-metro-section-num-circle" />
<text x="863.5" y="470.0" font-size="12" fill="#ffffff" font-family="'Helvetica Neue', Helvetica, Arial, sans-serif" font-weight="bold" text-anchor="middle" dy="0.3em">5</text>
<text x="879.5" y="470.0" font-size="16.0" fill="#aaaaaa" font-family="'Helvetica Neue', Helvetica, Arial, sans-serif" font-weight="bold" dy="0.3em" class="nf-metro-section-label">Quality control &amp; reporting</text>
<path d="M1066.5,575.0 L1042.0,575.0 Q1032.0,575.0,1026.0,567.0 L1008.0,543.0 Q1002.0,535.0,992.0,535.0 L970.5,535.0" stroke="#0570b0" stroke-width="3.0" fill="none" stroke-linecap="round" stroke-linejoin="round" />
<path d="M1066.5,572.0 L1042.0,572.0 Q1032.0,572.0,1026.0,564.0 L1008.0,540.0 Q1002.0,532.0,992.0,532.0 L970.5,532.0" stroke="#2db572" stroke-width="3.0" fill="none" stroke-linecap="round" stroke-linejoin="round" />
<path d="M1066.5,569.0 L1042.0,569.0 Q1032.0,569.0,1026.0,561.0 L1008.0,537.0 Q1002.0,529.0,992.0,529.0 L970.5,529.0" stroke="#f5c542" stroke-width="3.0" fill="none" stroke-linecap="round" stroke-linejoin="round" />
<path d="M1471.5,535.0 L1411.5,535.0" stroke="#0570b0" stroke-width="3.0" stroke-linecap="round" />
<path d="M1411.5,535.0 L1351.5,535.0" stroke="#0570b0" stroke-width="3.0" stroke-linecap="round" />
<path d="M1351.5,535.0 L1291.5,535.0" stroke="#0570b0" stroke-width="3.0" stroke-linecap="round" />
<path d="M1291.5,535.0 L1231.5,535.0" stroke="#0570b0" stroke-width="3.0" stroke-linecap="round" />
<path d="M1231.5,535.0 L1171.5,535.0" stroke="#0570b0" stroke-width="3.0" stroke-linecap="round" />
<path d="M1171.5,535.0 L1066.5,535.0" stroke="#0570b0" stroke-width="3.0" stroke-linecap="round" />
<path d="M1171.5,535.0 L1136.5,535.0 Q1126.5,535.0,1120.5,543.0 L1102.5,567.0 Q1096.5,575.0,1086.5,575.0 L1066.5,575.0" stroke="#0570b0" stroke-width="3.0" fill="none" stroke-linecap="round" stroke-linejoin="round" />
<path d="M1066.5,535.0 L970.5,535.0" stroke="#0570b0" stroke-width="3.0" stroke-linecap="round" />
<path d="M970.5,535.0 L910.5,535.0" stroke="#0570b0" stroke-width="3.0" stroke-linecap="round" />
<path d="M1471.5,532.0 L1411.5,532.0" stroke="#2db572" stroke-width="3.0" stroke-linecap="round" />
<path d="M1411.5,532.0 L1351.5,532.0" stroke="#2db572" stroke-width="3.0" stroke-linecap="round" />
<path d="M1351.5,532.0 L1291.5,532.0" stroke="#2db572" stroke-width="3.0" stroke-linecap="round" />
<path d="M1291.5,532.0 L1231.5,532.0" stroke="#2db572" stroke-width="3.0" stroke-linecap="round" />
<path d="M1231.5,532.0 L1171.5,532.0" stroke="#2db572" stroke-width="3.0" stroke-linecap="round" />
<path d="M1171.5,532.0 L1066.5,532.0" stroke="#2db572" stroke-width="3.0" stroke-linecap="round" />
<path d="M1171.5,532.0 L1136.5,532.0 Q1126.5,532.0,1120.5,540.0 L1102.5,564.0 Q1096.5,572.0,1086.5,572.0 L1066.5,572.0" stroke="#2db572" stroke-width="3.0" fill="none" stroke-linecap="round" stroke-linejoin="round" />
<path d="M1066.5,532.0 L970.5,532.0" stroke="#2db572" stroke-width="3.0" stroke-linecap="round" />
<path d="M970.5,532.0 L910.5,532.0" stroke="#2db572" stroke-width="3.0" stroke-linecap="round" />
<path d="M1471.5,529.0 L1411.5,529.0" stroke="#f5c542" stroke-width="3.0" stroke-linecap="round" />
<path d="M1411.5,529.0 L1351.5,529.0" stroke="#f5c542" stroke-width="3.0" stroke-linecap="round" />
<path d="M1351.5,529.0 L1291.5,529.0" stroke="#f5c542" stroke-width="3.0" stroke-linecap="round" />
<path d="M1291.5,529.0 L1231.5,529.0" stroke="#f5c542" stroke-width="3.0" stroke-linecap="round" />
<path d="M1231.5,529.0 L1171.5,529.0" stroke="#f5c542" stroke-width="3.0" stroke-linecap="round" />
<path d="M1171.5,529.0 L1066.5,529.0" stroke="#f5c542" stroke-width="3.0" stroke-linecap="round" />
<path d="M1171.5,529.0 L1136.5,529.0 Q1126.5,529.0,1120.5,537.0 L1102.5,561.0 Q1096.5,569.0,1086.5,569.0 L1066.5,569.0" stroke="#f5c542" stroke-width="3.0" fill="none" stroke-linecap="round" stroke-linejoin="round" />
<path d="M1066.5,529.0 L970.5,529.0" stroke="#f5c542" stroke-width="3.0" stroke-linecap="round" />
<path d="M970.5,529.0 L910.5,529.0" stroke="#f5c542" stroke-width="3.0" stroke-linecap="round" />
<path d="M1724.5,485.0 L1724.5,519.0 Q1724.5,532.0,1711.5,532.0 L1471.5,532.0" stroke="#2db572" stroke-width="3.0" fill="none" stroke-linecap="round" stroke-linejoin="round" />
<path d="M1727.5,485.0 L1727.5,519.0 Q1727.5,535.0,1711.5,535.0 L1471.5,535.0" stroke="#0570b0" stroke-width="3.0" fill="none" stroke-linecap="round" stroke-linejoin="round" />
<path d="M1721.5,485.0 L1721.5,519.0 Q1721.5,529.0,1711.5,529.0 L1471.5,529.0" stroke="#f5c542" stroke-width="3.0" fill="none" stroke-linecap="round" stroke-linejoin="round" />
<path d="M938.5,415.0 L958.5,415.0 Q968.5,415.0,974.5,407.0 L992.5,383.0 Q998.5,375.0,1008.5,375.0 L1034.5,375.0" stroke="#7b2d3b" stroke-width="3.0" fill="none" stroke-linecap="round" stroke-linejoin="round" />
<path d="M852.5,395.0 L857.5,395.0 Q867.5,395.0,875.8205029433784,400.5470019622523 L889.1794970566216,409.4529980377477 Q897.5,415.0,907.5,415.0 L938.5,415.0" stroke="#7b2d3b" stroke-width="3.0" fill="none" stroke-linecap="round" stroke-linejoin="round" />
<path d="M852.5,392.0 L857.5,392.0 Q867.5,392.0,875.8205029433784,386.4529980377477 L889.1794970566216,377.5470019622523 Q897.5,372.0,907.5,372.0 L938.5,372.0" stroke="#e63946" stroke-width="3.0" fill="none" stroke-linecap="round" stroke-linejoin="round" />
<path d="M1034.5,375.0 L1094.5,375.0" stroke="#7b2d3b" stroke-width="3.0" stroke-linecap="round" />
<path d="M1094.5,375.0 L1154.5,375.0" stroke="#7b2d3b" stroke-width="3.0" stroke-linecap="round" />
<path d="M1154.5,375.0 L1214.5,375.0" stroke="#7b2d3b" stroke-width="3.0" stroke-linecap="round" />
<path d="M938.5,372.0 L1034.5,372.0" stroke="#e63946" stroke-width="3.0" stroke-linecap="round" />
<path d="M1034.5,372.0 L1094.5,372.0" stroke="#e63946" stroke-width="3.0" stroke-linecap="round" />
<path d="M1094.5,372.0 L1154.5,372.0" stroke="#e63946" stroke-width="3.0" stroke-linecap="round" />
<path d="M1154.5,372.0 L1214.5,372.0" stroke="#e63946" stroke-width="3.0" stroke-linecap="round" />
<path d="M1724.5,355.0 L1724.5,485.0" stroke="#2db572" stroke-width="3.0" stroke-linecap="round" />
<path d="M1727.5,355.0 L1727.5,485.0" stroke="#0570b0" stroke-width="3.0" stroke-linecap="round" />
<path d="M1721.5,355.0 L1721.5,485.0" stroke="#f5c542" stroke-width="3.0" stroke-linecap="round" />
<path d="M1724.5,320.0 L1724.5,355.0" stroke="#2db572" stroke-width="3.0" stroke-linecap="round" />
<path d="M1727.5,320.0 L1727.5,355.0" stroke="#0570b0" stroke-width="3.0" stroke-linecap="round" />
<path d="M1721.5,320.0 L1721.5,355.0" stroke="#f5c542" stroke-width="3.0" stroke-linecap="round" />
<path d="M1724.5,280.0 L1724.5,320.0" stroke="#2db572" stroke-width="3.0" stroke-linecap="round" />
<path d="M1727.5,280.0 L1727.5,320.0" stroke="#0570b0" stroke-width="3.0" stroke-linecap="round" />
<path d="M1721.5,280.0 L1721.5,320.0" stroke="#f5c542" stroke-width="3.0" stroke-linecap="round" />
<path d="M1361.5,249.0 L1421.5,249.0" stroke="#ff8c00" stroke-width="3.0" stroke-linecap="round" />
<path d="M1724.5,240.0 L1724.5,280.0" stroke="#2db572" stroke-width="3.0" stroke-linecap="round" />
<path d="M1727.5,240.0 L1727.5,280.0" stroke="#0570b0" stroke-width="3.0" stroke-linecap="round" />
<path d="M1721.5,240.0 L1721.5,280.0" stroke="#f5c542" stroke-width="3.0" stroke-linecap="round" />
<path d="M648.5,219.0685400921536 L677.5,219.0685400921536 Q687.5,219.0685400921536,690.8609317160566,209.6502526682105 L714.1390682839434,144.4182874239431 Q717.5,135.0,727.5,135.0 L744.5,135.0" stroke="#7b2d3b" stroke-width="3.0" fill="none" stroke-linecap="round" stroke-linejoin="round" />
<path d="M648.5,216.0685400921536 L677.5,216.0685400921536 Q687.5,216.0685400921536,690.8609317160566,206.6502526682105 L714.1390682839434,141.4182874239431 Q717.5,132.0,727.5,132.0 L744.5,132.0" stroke="#e63946" stroke-width="3.0" fill="none" stroke-linecap="round" stroke-linejoin="round" />
<path d="M648.5,213.0685400921536 L677.5,213.0685400921536 Q687.5,213.0685400921536,690.8609317160566,203.6502526682105 L714.1390682839434,138.4182874239431 Q717.5,129.0,727.5,129.0 L744.5,129.0" stroke="#ff8c00" stroke-width="3.0" fill="none" stroke-linecap="round" stroke-linejoin="round" />
<path d="M648.5,210.0685400921536 L677.5,210.0685400921536 Q687.5,210.0685400921536,690.8609317160566,200.6502526682105 L714.1390682839434,135.4182874239431 Q717.5,126.0,727.5,126.0 L744.5,126.0" stroke="#f5c542" stroke-width="3.0" fill="none" stroke-linecap="round" stroke-linejoin="round" />
<path d="M938.5,209.0 L994.5,209.0 Q1004.5,209.0,1010.5,201.0 L1028.5,177.0 Q1034.5,169.0,1044.5,169.0 L1102.0,169.0" stroke="#ff8c00" stroke-width="3.0" fill="none" stroke-linecap="round" stroke-linejoin="round" />
<path d="M648.5,207.0685400921536 L677.5,207.0685400921536 Q687.5,207.0685400921536,690.8609317160566,197.6502526682105 L714.1390682839434,132.4182874239431 Q717.5,123.0,727.5,123.0 L744.5,123.0" stroke="#2db572" stroke-width="3.0" fill="none" stroke-linecap="round" stroke-linejoin="round" />
<path d="M1229.5,206.0 L1361.5,206.0" stroke="#f5c542" stroke-width="3.0" stroke-linecap="round" />
<path d="M1361.5,206.0 L1421.5,206.0" stroke="#f5c542" stroke-width="3.0" stroke-linecap="round" />
<path d="M1421.5,206.0 L1452.5,206.0 Q1462.5,206.0,1466.011234415884,196.63670822430956 L1488.988765584116,135.36329177569044 Q1492.5,126.0,1502.5,126.0 L1507.5,126.0" stroke="#f5c542" stroke-width="3.0" fill="none" stroke-linecap="round" stroke-linejoin="round" />
<path d="M648.5,204.0685400921536 L677.5,204.0685400921536 Q687.5,204.0685400921536,690.8609317160566,194.6502526682105 L714.1390682839434,129.4182874239431 Q717.5,120.0,727.5,120.0 L744.5,120.0" stroke="#0570b0" stroke-width="3.0" fill="none" stroke-linecap="round" stroke-linejoin="round" />
<path d="M1724.5,200.0 L1724.5,240.0" stroke="#2db572" stroke-width="3.0" stroke-linecap="round" />
<path d="M1727.5,200.0 L1727.5,240.0" stroke="#0570b0" stroke-width="3.0" stroke-linecap="round" />
<path d="M1721.5,200.0 L1721.5,240.0" stroke="#f5c542" stroke-width="3.0" stroke-linecap="round" />
<path d="M456.5,179.0685400921536 L485.5,179.0685400921536 Q495.5,179.0685400921536,501.1273826862308,170.80218877475184 L519.8726173137692,143.26635131740176 Q525.5,135.0,535.5,135.0 L552.5,135.0" stroke="#7b2d3b" stroke-width="3.0" fill="none" stroke-linecap="round" stroke-linejoin="round" />
<path d="M456.5,176.0685400921536 L485.5,176.0685400921536 Q495.5,176.0685400921536,501.1273826862308,167.80218877475184 L519.8726173137692,140.26635131740176 Q525.5,132.0,535.5,132.0 L552.5,132.0" stroke="#e63946" stroke-width="3.0" fill="none" stroke-linecap="round" stroke-linejoin="round" />
<path d="M648.5,175.0 L677.5,175.0 Q687.5,175.0,693.5,167.0 L711.5,143.0 Q717.5,135.0,727.5,135.0 L744.5,135.0" stroke="#7b2d3b" stroke-width="3.0" fill="none" stroke-linecap="round" stroke-linejoin="round" />
<path d="M456.5,173.0685400921536 L485.5,173.0685400921536 Q495.5,173.0685400921536,501.1273826862308,164.80218877475184 L519.8726173137692,137.26635131740176 Q525.5,129.0,535.5,129.0 L552.5,129.0" stroke="#ff8c00" stroke-width="3.0" fill="none" stroke-linecap="round" stroke-linejoin="round" />
<path d="M648.5,172.0 L677.5,172.0 Q687.5,172.0,693.5,164.0 L711.5,140.0 Q717.5,132.0,727.5,132.0 L744.5,132.0" stroke="#e63946" stroke-width="3.0" fill="none" stroke-linecap="round" stroke-linejoin="round" />
<path d="M456.5,170.0685400921536 L485.5,170.0685400921536 Q495.5,170.0685400921536,501.1273826862308,161.80218877475184 L519.8726173137692,134.26635131740176 Q525.5,126.0,535.5,126.0 L552.5,126.0" stroke="#f5c542" stroke-width="3.0" fill="none" stroke-linecap="round" stroke-linejoin="round" />
<path d="M648.5,169.0 L677.5,169.0 Q687.5,169.0,693.5,161.0 L711.5,137.0 Q717.5,129.0,727.5,129.0 L744.5,129.0" stroke="#ff8c00" stroke-width="3.0" fill="none" stroke-linecap="round" stroke-linejoin="round" />
<path d="M1102.0,169.0 L1229.5,169.0" stroke="#ff8c00" stroke-width="3.0" stroke-linecap="round" />
<path d="M1229.5,169.0 L1246.5,169.0 Q1256.5,169.0,1260.011234415884,178.36329177569044 L1282.988765584116,239.63670822430956 Q1286.5,249.0,1296.5,249.0 L1361.5,249.0" stroke="#ff8c00" stroke-width="3.0" fill="none" stroke-linecap="round" stroke-linejoin="round" />
<path d="M456.5,167.0685400921536 L485.5,167.0685400921536 Q495.5,167.0685400921536,501.1273826862308,158.80218877475184 L519.8726173137692,131.26635131740176 Q525.5,123.0,535.5,123.0 L552.5,123.0" stroke="#2db572" stroke-width="3.0" fill="none" stroke-linecap="round" stroke-linejoin="round" />
<path d="M648.5,166.0 L677.5,166.0 Q687.5,166.0,693.5,158.0 L711.5,134.0 Q717.5,126.0,727.5,126.0 L744.5,126.0" stroke="#f5c542" stroke-width="3.0" fill="none" stroke-linecap="round" stroke-linejoin="round" />
<path d="M938.5,166.0 L1102.0,166.0" stroke="#f5c542" stroke-width="3.0" stroke-linecap="round" />
<path d="M1102.0,166.0 L1159.5,166.0 Q1169.5,166.0,1175.5,174.0 L1193.5,198.0 Q1199.5,206.0,1209.5,206.0 L1229.5,206.0" stroke="#f5c542" stroke-width="3.0" fill="none" stroke-linecap="round" stroke-linejoin="round" />
<path d="M456.5,164.0685400921536 L485.5,164.0685400921536 Q495.5,164.0685400921536,501.1273826862308,155.80218877475184 L519.8726173137692,128.26635131740176 Q525.5,120.0,535.5,120.0 L552.5,120.0" stroke="#0570b0" stroke-width="3.0" fill="none" stroke-linecap="round" stroke-linejoin="round" />
<path d="M648.5,163.0 L677.5,163.0 Q687.5,163.0,693.5,155.0 L711.5,131.0 Q717.5,123.0,727.5,123.0 L744.5,123.0" stroke="#2db572" stroke-width="3.0" fill="none" stroke-linecap="round" stroke-linejoin="round" />
<path d="M1102.0,163.0 L1229.5,163.0" stroke="#2db572" stroke-width="3.0" stroke-linecap="round" />
<path d="M1229.5,163.0 L1246.5,163.0 Q1256.5,163.0,1262.5,155.0 L1280.5,131.0 Q1286.5,123.0,1296.5,123.0 L1361.5,123.0" stroke="#2db572" stroke-width="3.0" fill="none" stroke-linecap="round" stroke-linejoin="round" />
<path d="M648.5,160.0 L677.5,160.0 Q687.5,160.0,693.5,152.0 L711.5,128.0 Q717.5,120.0,727.5,120.0 L744.5,120.0" stroke="#0570b0" stroke-width="3.0" fill="none" stroke-linecap="round" stroke-linejoin="round" />
<path d="M1724.5,160.0 L1724.5,200.0" stroke="#2db572" stroke-width="3.0" stroke-linecap="round" />
<path d="M1727.5,160.0 L1727.5,200.0" stroke="#0570b0" stroke-width="3.0" stroke-linecap="round" />
<path d="M1721.5,160.0 L1721.5,200.0" stroke="#f5c542" stroke-width="3.0" stroke-linecap="round" />
<path d="M80.0,135.0 L140.0,135.0" stroke="#7b2d3b" stroke-width="3.0" stroke-linecap="round" />
<path d="M140.0,135.0 L200.0,135.0" stroke="#7b2d3b" stroke-width="3.0" stroke-linecap="round" />
<path d="M200.0,135.0 L260.0,135.0" stroke="#7b2d3b" stroke-width="3.0" stroke-linecap="round" />
<path d="M260.0,135.0 L320.0,135.0" stroke="#7b2d3b" stroke-width="3.0" stroke-linecap="round" />
<path d="M320.0,135.0 L456.5,135.0" stroke="#7b2d3b" stroke-width="3.0" stroke-linecap="round" />
<path d="M320.0,135.0 L386.5,135.0 Q396.5,135.0,402.1273826862308,143.26635131740176 L420.8726173137692,170.80218877475184 Q426.5,179.0685400921536,436.5,179.0685400921536 L456.5,179.0685400921536" stroke="#7b2d3b" stroke-width="3.0" fill="none" stroke-linecap="round" stroke-linejoin="round" />
<path d="M456.5,135.0 L552.5,135.0" stroke="#7b2d3b" stroke-width="3.0" stroke-linecap="round" />
<path d="M552.5,135.0 L648.5,135.0" stroke="#7b2d3b" stroke-width="3.0" stroke-linecap="round" />
<path d="M552.5,135.0 L569.5,135.0 Q579.5,135.0,585.5,143.0 L603.5,167.0 Q609.5,175.0,619.5,175.0 L648.5,175.0" stroke="#7b2d3b" stroke-width="3.0" fill="none" stroke-linecap="round" stroke-linejoin="round" />
<path d="M552.5,135.0 L569.5,135.0 Q579.5,135.0,582.8609317160566,144.4182874239431 L606.1390682839434,209.6502526682105 Q609.5,219.0685400921536,619.5,219.0685400921536 L648.5,219.0685400921536" stroke="#7b2d3b" stroke-width="3.0" fill="none" stroke-linecap="round" stroke-linejoin="round" />
<path d="M648.5,135.0 L744.5,135.0" stroke="#7b2d3b" stroke-width="3.0" stroke-linecap="round" />
<path d="M744.5,135.0 L794.5,135.0" stroke="#7b2d3b" stroke-width="3.0" stroke-linecap="round" />
<path d="M794.5,135.0 L804.5,135.0" stroke="#7b2d3b" stroke-width="3.0" stroke-linecap="round" />
<path d="M804.5,135.0 L809.0,135.0 Q819.0,135.0,819.0,145.0 L819.0,382.0 Q819.0,395.0,832.0,395.0 L852.5,395.0" stroke="#7b2d3b" stroke-width="3.0" fill="none" stroke-linecap="round" stroke-linejoin="round" />
<path d="M80.0,132.0 L140.0,132.0" stroke="#e63946" stroke-width="3.0" stroke-linecap="round" />
<path d="M140.0,132.0 L200.0,132.0" stroke="#e63946" stroke-width="3.0" stroke-linecap="round" />
<path d="M200.0,132.0 L260.0,132.0" stroke="#e63946" stroke-width="3.0" stroke-linecap="round" />
<path d="M260.0,132.0 L320.0,132.0" stroke="#e63946" stroke-width="3.0" stroke-linecap="round" />
<path d="M320.0,132.0 L456.5,132.0" stroke="#e63946" stroke-width="3.0" stroke-linecap="round" />
<path d="M320.0,132.0 L386.5,132.0 Q396.5,132.0,402.1273826862308,140.26635131740176 L420.8726173137692,167.80218877475184 Q426.5,176.0685400921536,436.5,176.0685400921536 L456.5,176.0685400921536" stroke="#e63946" stroke-width="3.0" fill="none" stroke-linecap="round" stroke-linejoin="round" />
<path d="M456.5,132.0 L552.5,132.0" stroke="#e63946" stroke-width="3.0" stroke-linecap="round" />
<path d="M552.5,132.0 L648.5,132.0" stroke="#e63946" stroke-width="3.0" stroke-linecap="round" />
<path d="M552.5,132.0 L569.5,132.0 Q579.5,132.0,585.5,140.0 L603.5,164.0 Q609.5,172.0,619.5,172.0 L648.5,172.0" stroke="#e63946" stroke-width="3.0" fill="none" stroke-linecap="round" stroke-linejoin="round" />
<path d="M552.5,132.0 L569.5,132.0 Q579.5,132.0,582.8609317160566,141.4182874239431 L606.1390682839434,206.6502526682105 Q609.5,216.0685400921536,619.5,216.0685400921536 L648.5,216.0685400921536" stroke="#e63946" stroke-width="3.0" fill="none" stroke-linecap="round" stroke-linejoin="round" />
<path d="M648.5,132.0 L744.5,132.0" stroke="#e63946" stroke-width="3.0" stroke-linecap="round" />
<path d="M744.5,132.0 L794.5,132.0" stroke="#e63946" stroke-width="3.0" stroke-linecap="round" />
<path d="M794.5,132.0 L804.5,132.0" stroke="#e63946" stroke-width="3.0" stroke-linecap="round" />
<path d="M804.5,132.0 L809.0,132.0 Q822.0,132.0,822.0,145.0 L822.0,382.0 Q822.0,392.0,832.0,392.0 L852.5,392.0" stroke="#e63946" stroke-width="3.0" fill="none" stroke-linecap="round" stroke-linejoin="round" />
<path d="M80.0,129.0 L140.0,129.0" stroke="#ff8c00" stroke-width="3.0" stroke-linecap="round" />
<path d="M140.0,129.0 L200.0,129.0" stroke="#ff8c00" stroke-width="3.0" stroke-linecap="round" />
<path d="M200.0,129.0 L260.0,129.0" stroke="#ff8c00" stroke-width="3.0" stroke-linecap="round" />
<path d="M260.0,129.0 L320.0,129.0" stroke="#ff8c00" stroke-width="3.0" stroke-linecap="round" />
<path d="M320.0,129.0 L456.5,129.0" stroke="#ff8c00" stroke-width="3.0" stroke-linecap="round" />
<path d="M320.0,129.0 L386.5,129.0 Q396.5,129.0,402.1273826862308,137.26635131740176 L420.8726173137692,164.80218877475184 Q426.5,173.0685400921536,436.5,173.0685400921536 L456.5,173.0685400921536" stroke="#ff8c00" stroke-width="3.0" fill="none" stroke-linecap="round" stroke-linejoin="round" />
<path d="M456.5,129.0 L552.5,129.0" stroke="#ff8c00" stroke-width="3.0" stroke-linecap="round" />
<path d="M552.5,129.0 L648.5,129.0" stroke="#ff8c00" stroke-width="3.0" stroke-linecap="round" />
<path d="M552.5,129.0 L569.5,129.0 Q579.5,129.0,585.5,137.0 L603.5,161.0 Q609.5,169.0,619.5,169.0 L648.5,169.0" stroke="#ff8c00" stroke-width="3.0" fill="none" stroke-linecap="round" stroke-linejoin="round" />
<path d="M552.5,129.0 L569.5,129.0 Q579.5,129.0,582.8609317160566,138.4182874239431 L606.1390682839434,203.6502526682105 Q609.5,213.0685400921536,619.5,213.0685400921536 L648.5,213.0685400921536" stroke="#ff8c00" stroke-width="3.0" fill="none" stroke-linecap="round" stroke-linejoin="round" />
<path d="M648.5,129.0 L744.5,129.0" stroke="#ff8c00" stroke-width="3.0" stroke-linecap="round" />
<path d="M744.5,129.0 L794.5,129.0" stroke="#ff8c00" stroke-width="3.0" stroke-linecap="round" />
<path d="M852.5,129.0 L857.5,129.0 Q867.5,129.0,871.0112344158839,138.36329177569044 L893.9887655841161,199.63670822430956 Q897.5,209.0,907.5,209.0 L938.5,209.0" stroke="#ff8c00" stroke-width="3.0" fill="none" stroke-linecap="round" stroke-linejoin="round" />
<path d="M794.5,129.0 L804.5,129.0" stroke="#ff8c00" stroke-width="3.0" stroke-linecap="round" />
<path d="M804.5,129.0 L852.5,129.0" stroke="#ff8c00" stroke-width="3.0" stroke-linecap="round" />
<path d="M80.0,126.0 L140.0,126.0" stroke="#f5c542" stroke-width="3.0" stroke-linecap="round" />
<path d="M140.0,126.0 L200.0,126.0" stroke="#f5c542" stroke-width="3.0" stroke-linecap="round" />
<path d="M200.0,126.0 L260.0,126.0" stroke="#f5c542" stroke-width="3.0" stroke-linecap="round" />
<path d="M260.0,126.0 L320.0,126.0" stroke="#f5c542" stroke-width="3.0" stroke-linecap="round" />
<path d="M320.0,126.0 L456.5,126.0" stroke="#f5c542" stroke-width="3.0" stroke-linecap="round" />
<path d="M320.0,126.0 L386.5,126.0 Q396.5,126.0,402.1273826862308,134.26635131740176 L420.8726173137692,161.80218877475184 Q426.5,170.0685400921536,436.5,170.0685400921536 L456.5,170.0685400921536" stroke="#f5c542" stroke-width="3.0" fill="none" stroke-linecap="round" stroke-linejoin="round" />
<path d="M456.5,126.0 L552.5,126.0" stroke="#f5c542" stroke-width="3.0" stroke-linecap="round" />
<path d="M552.5,126.0 L648.5,126.0" stroke="#f5c542" stroke-width="3.0" stroke-linecap="round" />
<path d="M552.5,126.0 L569.5,126.0 Q579.5,126.0,585.5,134.0 L603.5,158.0 Q609.5,166.0,619.5,166.0 L648.5,166.0" stroke="#f5c542" stroke-width="3.0" fill="none" stroke-linecap="round" stroke-linejoin="round" />
<path d="M552.5,126.0 L569.5,126.0 Q579.5,126.0,582.8609317160566,135.4182874239431 L606.1390682839434,200.6502526682105 Q609.5,210.0685400921536,619.5,210.0685400921536 L648.5,210.0685400921536" stroke="#f5c542" stroke-width="3.0" fill="none" stroke-linecap="round" stroke-linejoin="round" />
<path d="M648.5,126.0 L744.5,126.0" stroke="#f5c542" stroke-width="3.0" stroke-linecap="round" />
<path d="M744.5,126.0 L794.5,126.0" stroke="#f5c542" stroke-width="3.0" stroke-linecap="round" />
<path d="M852.5,126.0 L857.5,126.0 Q867.5,126.0,873.5,134.0 L891.5,158.0 Q897.5,166.0,907.5,166.0 L938.5,166.0" stroke="#f5c542" stroke-width="3.0" fill="none" stroke-linecap="round" stroke-linejoin="round" />
<path d="M1557.5,126.0 L1711.5,126.0 Q1721.5,126.0,1721.5,136.0 L1721.5,160.0" stroke="#f5c542" stroke-width="3.0" fill="none" stroke-linecap="round" stroke-linejoin="round" />
<path d="M794.5,126.0 L804.5,126.0" stroke="#f5c542" stroke-width="3.0" stroke-linecap="round" />
<path d="M804.5,126.0 L852.5,126.0" stroke="#f5c542" stroke-width="3.0" stroke-linecap="round" />
<path d="M1507.5,126.0 L1557.5,126.0" stroke="#f5c542" stroke-width="3.0" stroke-linecap="round" />
<path d="M80.0,123.0 L140.0,123.0" stroke="#2db572" stroke-width="3.0" stroke-linecap="round" />
<path d="M140.0,123.0 L200.0,123.0" stroke="#2db572" stroke-width="3.0" stroke-linecap="round" />
<path d="M200.0,123.0 L260.0,123.0" stroke="#2db572" stroke-width="3.0" stroke-linecap="round" />
<path d="M260.0,123.0 L320.0,123.0" stroke="#2db572" stroke-width="3.0" stroke-linecap="round" />
<path d="M320.0,123.0 L456.5,123.0" stroke="#2db572" stroke-width="3.0" stroke-linecap="round" />
<path d="M320.0,123.0 L386.5,123.0 Q396.5,123.0,402.1273826862308,131.26635131740176 L420.8726173137692,158.80218877475184 Q426.5,167.0685400921536,436.5,167.0685400921536 L456.5,167.0685400921536" stroke="#2db572" stroke-width="3.0" fill="none" stroke-linecap="round" stroke-linejoin="round" />
<path d="M456.5,123.0 L552.5,123.0" stroke="#2db572" stroke-width="3.0" stroke-linecap="round" />
<path d="M552.5,123.0 L648.5,123.0" stroke="#2db572" stroke-width="3.0" stroke-linecap="round" />
<path d="M552.5,123.0 L569.5,123.0 Q579.5,123.0,585.5,131.0 L603.5,155.0 Q609.5,163.0,619.5,163.0 L648.5,163.0" stroke="#2db572" stroke-width="3.0" fill="none" stroke-linecap="round" stroke-linejoin="round" />
<path d="M552.5,123.0 L569.5,123.0 Q579.5,123.0,582.8609317160566,132.4182874239431 L606.1390682839434,197.6502526682105 Q609.5,207.0685400921536,619.5,207.0685400921536 L648.5,207.0685400921536" stroke="#2db572" stroke-width="3.0" fill="none" stroke-linecap="round" stroke-linejoin="round" />
<path d="M648.5,123.0 L744.5,123.0" stroke="#2db572" stroke-width="3.0" stroke-linecap="round" />
<path d="M938.5,123.0 L946.5,123.0 Q956.5,123.0,962.5,131.0 L980.5,155.0 Q986.5,163.0,996.5,163.0 L1102.0,163.0" stroke="#2db572" stroke-width="3.0" fill="none" stroke-linecap="round" stroke-linejoin="round" />
<path d="M1361.5,123.0 L1421.5,123.0" stroke="#2db572" stroke-width="3.0" stroke-linecap="round" />
<path d="M744.5,123.0 L794.5,123.0" stroke="#2db572" stroke-width="3.0" stroke-linecap="round" />
<path d="M852.5,123.0 L938.5,123.0" stroke="#2db572" stroke-width="3.0" stroke-linecap="round" />
<path d="M1421.5,123.0 L1507.5,123.0" stroke="#2db572" stroke-width="3.0" stroke-linecap="round" />
<path d="M1557.5,123.0 L1711.5,123.0 Q1724.5,123.0,1724.5,136.0 L1724.5,160.0" stroke="#2db572" stroke-width="3.0" fill="none" stroke-linecap="round" stroke-linejoin="round" />
<path d="M794.5,123.0 L804.5,123.0" stroke="#2db572" stroke-width="3.0" stroke-linecap="round" />
<path d="M804.5,123.0 L852.5,123.0" stroke="#2db572" stroke-width="3.0" stroke-linecap="round" />
<path d="M1507.5,123.0 L1557.5,123.0" stroke="#2db572" stroke-width="3.0" stroke-linecap="round" />
<path d="M80.0,120.0 L140.0,120.0" stroke="#0570b0" stroke-width="3.0" stroke-linecap="round" />
<path d="M140.0,120.0 L200.0,120.0" stroke="#0570b0" stroke-width="3.0" stroke-linecap="round" />
<path d="M200.0,120.0 L260.0,120.0" stroke="#0570b0" stroke-width="3.0" stroke-linecap="round" />
<path d="M260.0,120.0 L320.0,120.0" stroke="#0570b0" stroke-width="3.0" stroke-linecap="round" />
<path d="M320.0,120.0 L456.5,120.0" stroke="#0570b0" stroke-width="3.0" stroke-linecap="round" />
<path d="M320.0,120.0 L386.5,120.0 Q396.5,120.0,402.1273826862308,128.26635131740176 L420.8726173137692,155.80218877475184 Q426.5,164.0685400921536,436.5,164.0685400921536 L456.5,164.0685400921536" stroke="#0570b0" stroke-width="3.0" fill="none" stroke-linecap="round" stroke-linejoin="round" />
<path d="M456.5,120.0 L552.5,120.0" stroke="#0570b0" stroke-width="3.0" stroke-linecap="round" />
<path d="M552.5,120.0 L648.5,120.0" stroke="#0570b0" stroke-width="3.0" stroke-linecap="round" />
<path d="M552.5,120.0 L569.5,120.0 Q579.5,120.0,585.5,128.0 L603.5,152.0 Q609.5,160.0,619.5,160.0 L648.5,160.0" stroke="#0570b0" stroke-width="3.0" fill="none" stroke-linecap="round" stroke-linejoin="round" />
<path d="M552.5,120.0 L569.5,120.0 Q579.5,120.0,582.8609317160566,129.4182874239431 L606.1390682839434,194.6502526682105 Q609.5,204.0685400921536,619.5,204.0685400921536 L648.5,204.0685400921536" stroke="#0570b0" stroke-width="3.0" fill="none" stroke-linecap="round" stroke-linejoin="round" />
<path d="M648.5,120.0 L744.5,120.0" stroke="#0570b0" stroke-width="3.0" stroke-linecap="round" />
<path d="M938.5,120.0 L1102.0,120.0" stroke="#0570b0" stroke-width="3.0" stroke-linecap="round" />
<path d="M1102.0,120.0 L1361.5,120.0" stroke="#0570b0" stroke-width="3.0" stroke-linecap="round" />
<path d="M1361.5,120.0 L1421.5,120.0" stroke="#0570b0" stroke-width="3.0" stroke-linecap="round" />
<path d="M744.5,120.0 L794.5,120.0" stroke="#0570b0" stroke-width="3.0" stroke-linecap="round" />
<path d="M852.5,120.0 L938.5,120.0" stroke="#0570b0" stroke-width="3.0" stroke-linecap="round" />
<path d="M1421.5,120.0 L1507.5,120.0" stroke="#0570b0" stroke-width="3.0" stroke-linecap="round" />
<path d="M1557.5,120.0 L1711.5,120.0 Q1727.5,120.0,1727.5,136.0 L1727.5,160.0" stroke="#0570b0" stroke-width="3.0" fill="none" stroke-linecap="round" stroke-linejoin="round" />
<path d="M794.5,120.0 L804.5,120.0" stroke="#0570b0" stroke-width="3.0" stroke-linecap="round" />
<path d="M804.5,120.0 L852.5,120.0" stroke="#0570b0" stroke-width="3.0" stroke-linecap="round" />
<path d="M1507.5,120.0 L1557.5,120.0" stroke="#0570b0" stroke-width="3.0" stroke-linecap="round" />
<rect x="75.0" y="115.0" width="10.0" height="25.0" fill="#ffffff" stroke="#333333" stroke-width="1.5" />
<path d="M43.0,111.5 L61.0,111.5 L69.0,119.5 L69.0,141.5 Q69.0,143.5,67.0,143.5 L43.0,143.5 Q41.0,143.5,41.0,141.5 L41.0,113.5 Q41.0,111.5,43.0,111.5 Z" fill="#ffffff" stroke="#333333" stroke-width="1.5" stroke-linejoin="round" />
<path d="M61.0,111.5 L61.0,119.5 L69.0,119.5 Z" fill="#333333" opacity="0.15" stroke="none" />
<path d="M61.0,111.5 L61.0,119.5 L69.0,119.5" fill="none" stroke="#333333" stroke-width="0.8999999999999999" />
<text x="55.0" y="128.7" font-size="7.5" fill="#000000" font-family="'Helvetica Neue', Helvetica, Arial, sans-serif" font-weight="bold" text-anchor="middle" dy="0.3em">FASTQ</text>
<rect x="135.0" y="115.0" width="10.0" height="25.0" rx="5.0" ry="5.0" fill="#ffffff" stroke="#333333" stroke-width="1.5" />
<rect x="195.0" y="115.0" width="10.0" height="25.0" rx="5.0" ry="5.0" fill="#ffffff" stroke="#333333" stroke-width="1.5" />
<rect x="255.0" y="115.0" width="10.0" height="25.0" rx="5.0" ry="5.0" fill="#ffffff" stroke="#333333" stroke-width="1.5" />
<rect x="315.0" y="115.0" width="10.0" height="25.0" rx="5.0" ry="5.0" fill="#ffffff" stroke="#333333" stroke-width="1.5" />
<rect x="451.5" y="115.0" width="10.0" height="25.0" rx="5.0" ry="5.0" fill="#ffffff" stroke="#333333" stroke-width="1.5" />
<rect x="451.5" y="159.0685400921536" width="10.0" height="25.0" rx="5.0" ry="5.0" fill="#ffffff" stroke="#333333" stroke-width="1.5" />
<rect x="547.5" y="115.0" width="10.0" height="25.0" rx="5.0" ry="5.0" fill="#ffffff" stroke="#333333" stroke-width="1.5" />
<rect x="643.5" y="115.0" width="10.0" height="25.0" rx="5.0" ry="5.0" fill="#ffffff" stroke="#333333" stroke-width="1.5" />
<rect x="643.5" y="155.0" width="10.0" height="25.0" rx="5.0" ry="5.0" fill="#ffffff" stroke="#333333" stroke-width="1.5" />
<rect x="643.5" y="199.0685400921536" width="10.0" height="25.0" rx="5.0" ry="5.0" fill="#ffffff" stroke="#333333" stroke-width="1.5" />
<rect x="739.5" y="115.0" width="10.0" height="25.0" rx="5.0" ry="5.0" fill="#ffffff" stroke="#333333" stroke-width="1.5" />
<rect x="933.5" y="115.0" width="10.0" height="13.0" rx="5.0" ry="5.0" fill="#ffffff" stroke="#333333" stroke-width="1.5" />
<rect x="933.5" y="161.0" width="10.0" height="10.0" rx="5.0" ry="5.0" fill="#ffffff" stroke="#333333" stroke-width="1.5" />
<rect x="933.5" y="204.0" width="10.0" height="10.0" rx="5.0" ry="5.0" fill="#ffffff" stroke="#333333" stroke-width="1.5" />
<rect x="1097.0" y="115.0" width="10.0" height="10.0" rx="5.0" ry="5.0" fill="#ffffff" stroke="#333333" stroke-width="1.5" />
<rect x="1224.5" y="158.0" width="10.0" height="16.0" rx="5.0" ry="5.0" fill="#ffffff" stroke="#333333" stroke-width="1.5" />
<rect x="1097.0" y="158.0" width="10.0" height="16.0" rx="5.0" ry="5.0" fill="#ffffff" stroke="#333333" stroke-width="1.5" />
<rect x="1356.5" y="115.0" width="10.0" height="13.0" rx="5.0" ry="5.0" fill="#ffffff" stroke="#333333" stroke-width="1.5" />
<rect x="1416.5" y="115.0" width="10.0" height="13.0" rx="5.0" ry="5.0" fill="#ffffff" stroke="#333333" stroke-width="1.5" />
<rect x="1356.5" y="244.0" width="10.0" height="10.0" rx="5.0" ry="5.0" fill="#ffffff" stroke="#333333" stroke-width="1.5" />
<rect x="1416.5" y="244.0" width="10.0" height="10.0" fill="#ffffff" stroke="#333333" stroke-width="1.5" />
<path d="M1434.5,233.0 L1452.5,233.0 L1460.5,241.0 L1460.5,263.0 Q1460.5,265.0,1458.5,265.0 L1434.5,265.0 Q1432.5,265.0,1432.5,263.0 L1432.5,235.0 Q1432.5,233.0,1434.5,233.0 Z" fill="#ffffff" stroke="#333333" stroke-width="1.5" stroke-linejoin="round" />
<path d="M1452.5,233.0 L1452.5,241.0 L1460.5,241.0 Z" fill="#333333" opacity="0.15" stroke="none" />
<path d="M1452.5,233.0 L1452.5,241.0 L1460.5,241.0" fill="none" stroke="#333333" stroke-width="0.8999999999999999" />
<text x="1446.5" y="250.2" font-size="7.5" fill="#000000" font-family="'Helvetica Neue', Helvetica, Arial, sans-serif" font-weight="bold" text-anchor="middle" dy="0.3em">HTML</text>
<rect x="933.5" y="367.0" width="10.0" height="10.0" rx="5.0" ry="5.0" fill="#ffffff" stroke="#333333" stroke-width="1.5" />
<rect x="933.5" y="410.0" width="10.0" height="10.0" rx="5.0" ry="5.0" fill="#ffffff" stroke="#333333" stroke-width="1.5" />
<rect x="1029.5" y="367.0" width="10.0" height="13.0" rx="5.0" ry="5.0" fill="#ffffff" stroke="#333333" stroke-width="1.5" />
<rect x="1089.5" y="367.0" width="10.0" height="13.0" rx="5.0" ry="5.0" fill="#ffffff" stroke="#333333" stroke-width="1.5" />
<rect x="1149.5" y="367.0" width="10.0" height="13.0" rx="5.0" ry="5.0" fill="#ffffff" stroke="#333333" stroke-width="1.5" />
<rect x="1209.5" y="367.0" width="10.0" height="13.0" fill="#ffffff" stroke="#333333" stroke-width="1.5" />
<path d="M1227.5,357.5 L1245.5,357.5 L1253.5,365.5 L1253.5,387.5 Q1253.5,389.5,1251.5,389.5 L1227.5,389.5 Q1225.5,389.5,1225.5,387.5 L1225.5,359.5 Q1225.5,357.5,1227.5,357.5 Z" fill="#ffffff" stroke="#333333" stroke-width="1.5" stroke-linejoin="round" />
<path d="M1245.5,357.5 L1245.5,365.5 L1253.5,365.5 Z" fill="#333333" opacity="0.15" stroke="none" />
<path d="M1245.5,357.5 L1245.5,365.5 L1253.5,365.5" fill="none" stroke="#333333" stroke-width="0.8999999999999999" />
<text x="1239.5" y="374.7" font-size="7.5" fill="#000000" font-family="'Helvetica Neue', Helvetica, Arial, sans-serif" font-weight="bold" text-anchor="middle" dy="0.3em">HTML</text>
<rect x="1716.5" y="155.0" width="16.0" height="10.0" rx="5.0" ry="5.0" fill="#ffffff" stroke="#333333" stroke-width="1.5" />
<rect x="1716.5" y="195.0" width="16.0" height="10.0" rx="5.0" ry="5.0" fill="#ffffff" stroke="#333333" stroke-width="1.5" />
<rect x="1716.5" y="235.0" width="16.0" height="10.0" rx="5.0" ry="5.0" fill="#ffffff" stroke="#333333" stroke-width="1.5" />
<rect x="1716.5" y="275.0" width="16.0" height="10.0" rx="5.0" ry="5.0" fill="#ffffff" stroke="#333333" stroke-width="1.5" />
<rect x="1716.5" y="315.0" width="16.0" height="10.0" rx="5.0" ry="5.0" fill="#ffffff" stroke="#333333" stroke-width="1.5" />
<rect x="1466.5" y="524.0" width="10.0" height="16.0" rx="5.0" ry="5.0" fill="#ffffff" stroke="#333333" stroke-width="1.5" />
<rect x="1406.5" y="524.0" width="10.0" height="16.0" rx="5.0" ry="5.0" fill="#ffffff" stroke="#333333" stroke-width="1.5" />
<rect x="1346.5" y="524.0" width="10.0" height="16.0" rx="5.0" ry="5.0" fill="#ffffff" stroke="#333333" stroke-width="1.5" />
<rect x="1286.5" y="524.0" width="10.0" height="16.0" rx="5.0" ry="5.0" fill="#ffffff" stroke="#333333" stroke-width="1.5" />
<rect x="1226.5" y="524.0" width="10.0" height="16.0" rx="5.0" ry="5.0" fill="#ffffff" stroke="#333333" stroke-width="1.5" />
<rect x="1166.5" y="524.0" width="10.0" height="16.0" rx="5.0" ry="5.0" fill="#ffffff" stroke="#333333" stroke-width="1.5" />
<rect x="1061.5" y="524.0" width="10.0" height="16.0" rx="5.0" ry="5.0" fill="#ffffff" stroke="#333333" stroke-width="1.5" />
<rect x="1061.5" y="564.0" width="10.0" height="16.0" rx="5.0" ry="5.0" fill="#ffffff" stroke="#333333" stroke-width="1.5" />
<rect x="965.5" y="524.0" width="10.0" height="16.0" rx="5.0" ry="5.0" fill="#ffffff" stroke="#333333" stroke-width="1.5" />
<rect x="905.5" y="524.0" width="10.0" height="16.0" fill="#ffffff" stroke="#333333" stroke-width="1.5" />
<path d="M873.5,516.0 L891.5,516.0 L899.5,524.0 L899.5,546.0 Q899.5,548.0,897.5,548.0 L873.5,548.0 Q871.5,548.0,871.5,546.0 L871.5,518.0 Q871.5,516.0,873.5,516.0 Z" fill="#ffffff" stroke="#333333" stroke-width="1.5" stroke-linejoin="round" />
<path d="M891.5,516.0 L891.5,524.0 L899.5,524.0 Z" fill="#333333" opacity="0.15" stroke="none" />
<path d="M891.5,516.0 L891.5,524.0 L899.5,524.0" fill="none" stroke="#333333" stroke-width="0.8999999999999999" />
<text x="885.5" y="533.2" font-size="7.5" fill="#000000" font-family="'Helvetica Neue', Helvetica, Arial, sans-serif" font-weight="bold" text-anchor="middle" dy="0.3em">HTML</text>
<text x="938.5" y="134.0" font-size="13.0" fill="#e0e0e0" font-family="'Helvetica Neue', Helvetica, Arial, sans-serif" font-weight="bold" text-anchor="middle" dominant-baseline="hanging">STAR</text>
<text x="1707.5" y="160.0" font-size="13.0" fill="#e0e0e0" font-family="'Helvetica Neue', Helvetica, Arial, sans-serif" font-weight="bold" text-anchor="end" dominant-baseline="central">SAMtools</text>
<text x="1471.5" y="515.0" font-size="13.0" fill="#e0e0e0" font-family="'Helvetica Neue', Helvetica, Arial, sans-serif" font-weight="bold" text-anchor="middle" dominant-baseline="auto">RSeQC</text>
<text x="938.5" y="177.0" font-size="13.0" fill="#e0e0e0" font-family="'Helvetica Neue', Helvetica, Arial, sans-serif" font-weight="bold" text-anchor="middle" dominant-baseline="hanging">HISAT2</text>
<text x="938.5" y="220.0" font-size="13.0" fill="#e0e0e0" font-family="'Helvetica Neue', Helvetica, Arial, sans-serif" font-weight="bold" text-anchor="middle" dominant-baseline="hanging">Bowtie2</text>
<text x="938.5" y="383.0" font-size="13.0" fill="#e0e0e0" font-family="'Helvetica Neue', Helvetica, Arial, sans-serif" font-weight="bold" text-anchor="middle" dominant-baseline="hanging">Salmon</text>
<text x="938.5" y="426.0" font-size="13.0" fill="#e0e0e0" font-family="'Helvetica Neue', Helvetica, Arial, sans-serif" font-weight="bold" text-anchor="middle" dominant-baseline="hanging">Kallisto</text>
<text x="140.0" y="106.0" font-size="13.0" fill="#e0e0e0" font-family="'Helvetica Neue', Helvetica, Arial, sans-serif" font-weight="bold" text-anchor="middle" dominant-baseline="auto">Cat FASTQ</text>
<text x="1102.0" y="106.0" font-size="13.0" fill="#e0e0e0" font-family="'Helvetica Neue', Helvetica, Arial, sans-serif" font-weight="bold" text-anchor="middle" dominant-baseline="auto">RSEM</text>
<text x="1707.5" y="200.0" font-size="13.0" fill="#e0e0e0" font-family="'Helvetica Neue', Helvetica, Arial, sans-serif" font-weight="bold" text-anchor="end" dominant-baseline="central">Picard</text>
<text x="1411.5" y="546.0" font-size="13.0" fill="#e0e0e0" font-family="'Helvetica Neue', Helvetica, Arial, sans-serif" font-weight="bold" text-anchor="middle" dominant-baseline="hanging">Preseq</text>
<text x="1102.0" y="149.0" font-size="13.0" fill="#e0e0e0" font-family="'Helvetica Neue', Helvetica, Arial, sans-serif" font-weight="bold" text-anchor="middle" dominant-baseline="auto">UMI-tools Dedup</text>
<text x="1034.5" y="358.0" font-size="13.0" fill="#e0e0e0" font-family="'Helvetica Neue', Helvetica, Arial, sans-serif" font-weight="bold" text-anchor="middle" dominant-baseline="auto">tximport</text>
<text x="200.0" y="146.0" font-size="13.0" fill="#e0e0e0" font-family="'Helvetica Neue', Helvetica, Arial, sans-serif" font-weight="bold" text-anchor="middle" dominant-baseline="hanging">FastQC</text>
<text x="1707.5" y="240.0" font-size="13.0" fill="#e0e0e0" font-family="'Helvetica Neue', Helvetica, Arial, sans-serif" font-weight="bold" text-anchor="end" dominant-baseline="central">BEDTools</text>
<text x="1351.5" y="515.0" font-size="13.0" fill="#e0e0e0" font-family="'Helvetica Neue', Helvetica, Arial, sans-serif" font-weight="bold" text-anchor="middle" dominant-baseline="auto">Qualimap</text>
<text x="1229.5" y="180.0" font-size="13.0" fill="#e0e0e0" font-family="'Helvetica Neue', Helvetica, Arial, sans-serif" font-weight="bold" text-anchor="middle" dominant-baseline="hanging">Salmon</text>
<text x="1094.5" y="386.0" font-size="13.0" fill="#e0e0e0" font-family="'Helvetica Neue', Helvetica, Arial, sans-serif" font-weight="bold" text-anchor="middle" dominant-baseline="hanging">Sum. Exp.</text>
<text x="263.6" y="106.0" font-size="13.0" fill="#e0e0e0" font-family="'Helvetica Neue', Helvetica, Arial, sans-serif" font-weight="bold" text-anchor="middle" dominant-baseline="auto">Infer Strandedness</text>
<text x="1361.5" y="106.0" font-size="13.0" fill="#e0e0e0" font-family="'Helvetica Neue', Helvetica, Arial, sans-serif" font-weight="bold" text-anchor="middle" dominant-baseline="auto">tximport</text>
<text x="1707.5" y="280.0" font-size="13.0" fill="#e0e0e0" font-family="'Helvetica Neue', Helvetica, Arial, sans-serif" font-weight="bold" text-anchor="end" dominant-baseline="central">bedGraphToBigWig</text>
<text x="1291.5" y="546.0" font-size="13.0" fill="#e0e0e0" font-family="'Helvetica Neue', Helvetica, Arial, sans-serif" font-weight="bold" text-anchor="middle" dominant-baseline="hanging">dupRadar</text>
<text x="1361.5" y="260.0" font-size="13.0" fill="#e0e0e0" font-family="'Helvetica Neue', Helvetica, Arial, sans-serif" font-weight="bold" text-anchor="middle" dominant-baseline="hanging">MultiQC</text>
<text x="1154.5" y="358.0" font-size="13.0" fill="#e0e0e0" font-family="'Helvetica Neue', Helvetica, Arial, sans-serif" font-weight="bold" text-anchor="middle" dominant-baseline="auto">MultiQC</text>
<text x="320.0" y="146.0" font-size="13.0" fill="#e0e0e0" font-family="'Helvetica Neue', Helvetica, Arial, sans-serif" font-weight="bold" text-anchor="middle" dominant-baseline="hanging">UMI-tools Extract</text>
<text x="1421.5" y="134.0" font-size="13.0" fill="#e0e0e0" font-family="'Helvetica Neue', Helvetica, Arial, sans-serif" font-weight="bold" text-anchor="middle" dominant-baseline="hanging">Sum. Exp.</text>
<text x="1707.5" y="320.0" font-size="13.0" fill="#e0e0e0" font-family="'Helvetica Neue', Helvetica, Arial, sans-serif" font-weight="bold" text-anchor="end" dominant-baseline="central">StringTie</text>
<text x="1231.5" y="515.0" font-size="13.0" fill="#e0e0e0" font-family="'Helvetica Neue', Helvetica, Arial, sans-serif" font-weight="bold" text-anchor="middle" dominant-baseline="auto">featureCounts</text>
<text x="456.5" y="106.0" font-size="13.0" fill="#e0e0e0" font-family="'Helvetica Neue', Helvetica, Arial, sans-serif" font-weight="bold" text-anchor="middle" dominant-baseline="auto">fastp</text>
<text x="1171.5" y="546.0" font-size="13.0" fill="#e0e0e0" font-family="'Helvetica Neue', Helvetica, Arial, sans-serif" font-weight="bold" text-anchor="middle" dominant-baseline="hanging">DESeq2 PCA</text>
<text x="456.5" y="155.04112405529216" font-size="13.0" fill="#e0e0e0" font-family="'Helvetica Neue', Helvetica, Arial, sans-serif" font-weight="bold" text-anchor="middle" dominant-baseline="auto">Trim Galore!</text>
<text x="552.5" y="146.0" font-size="13.0" fill="#e0e0e0" font-family="'Helvetica Neue', Helvetica, Arial, sans-serif" font-weight="bold" text-anchor="middle" dominant-baseline="hanging">FastQC</text>
<text x="1066.5" y="515.0" font-size="13.0" fill="#e0e0e0" font-family="'Helvetica Neue', Helvetica, Arial, sans-serif" font-weight="bold" text-anchor="middle" dominant-baseline="auto">Kraken2/Bracken</text>
<text x="1066.5" y="558.0" font-size="13.0" fill="#e0e0e0" font-family="'Helvetica Neue', Helvetica, Arial, sans-serif" font-weight="bold" text-anchor="middle" dominant-baseline="auto">Sylph</text>
<text x="648.5" y="106.0" font-size="13.0" fill="#e0e0e0" font-family="'Helvetica Neue', Helvetica, Arial, sans-serif" font-weight="bold" text-anchor="middle" dominant-baseline="auto">BBSplit</text>
<text x="970.5" y="546.0" font-size="13.0" fill="#e0e0e0" font-family="'Helvetica Neue', Helvetica, Arial, sans-serif" font-weight="bold" text-anchor="middle" dominant-baseline="hanging">MultiQC</text>
<text x="648.5" y="152.6" font-size="13.0" fill="#e0e0e0" font-family="'Helvetica Neue', Helvetica, Arial, sans-serif" font-weight="bold" text-anchor="middle" dominant-baseline="auto">SortMeRNA</text>
<text x="648.5" y="193.0685400921536" font-size="13.0" fill="#e0e0e0" font-family="'Helvetica Neue', Helvetica, Arial, sans-serif" font-weight="bold" text-anchor="middle" dominant-baseline="auto">RiboDetector</text>
<text x="744.5" y="146.0" font-size="13.0" fill="#e0e0e0" font-family="'Helvetica Neue', Helvetica, Arial, sans-serif" font-weight="bold" text-anchor="middle" dominant-baseline="hanging">FastQC</text>
<rect x="22.0" y="427.0" width="396.0" height="168.0" rx="6" ry="6" fill="rgba(0, 0, 0, 0.3)" />
<path d="M34.0,451.0 L58.0,451.0" stroke="#0570b0" stroke-width="3.0" stroke-linecap="round" />
<text x="70.0" y="451.0" font-size="14.0" fill="#e0e0e0" font-family="'Helvetica Neue', Helvetica, Arial, sans-serif" dy="0.3em">Aligner: STAR, Quantification: RSEM</text>
<path d="M34.0,475.0 L58.0,475.0" stroke="#2db572" stroke-width="3.0" stroke-linecap="round" />
<text x="70.0" y="475.0" font-size="14.0" fill="#e0e0e0" font-family="'Helvetica Neue', Helvetica, Arial, sans-serif" dy="0.3em">Aligner: STAR, Quantification: Salmon (default)</text>
<path d="M34.0,499.0 L58.0,499.0" stroke="#f5c542" stroke-width="3.0" stroke-linecap="round" />
<text x="70.0" y="499.0" font-size="14.0" fill="#e0e0e0" font-family="'Helvetica Neue', Helvetica, Arial, sans-serif" dy="0.3em">Aligner: HISAT2, Quantification: None</text>
<path d="M34.0,523.0 L58.0,523.0" stroke="#ff8c00" stroke-width="3.0" stroke-linecap="round" />
<text x="70.0" y="523.0" font-size="14.0" fill="#e0e0e0" font-family="'Helvetica Neue', Helvetica, Arial, sans-serif" dy="0.3em">Aligner: Bowtie2, Quantification: Salmon</text>
<path d="M34.0,547.0 L58.0,547.0" stroke="#e63946" stroke-width="3.0" stroke-linecap="round" />
<text x="70.0" y="547.0" font-size="14.0" fill="#e0e0e0" font-family="'Helvetica Neue', Helvetica, Arial, sans-serif" dy="0.3em">Pseudo-aligner: Salmon, Quantification: Salmon</text>
<path d="M34.0,571.0 L58.0,571.0" stroke="#7b2d3b" stroke-width="3.0" stroke-linecap="round" />
<text x="70.0" y="571.0" font-size="14.0" fill="#e0e0e0" font-family="'Helvetica Neue', Helvetica, Arial, sans-serif" dy="0.3em">Pseudo-aligner: Kallisto, Quantification: Kallisto</text>
<text x="1801.0" y="611.0" font-size="8" fill="rgba(150, 150, 150, 0.6)" font-family="'Helvetica Neue', Helvetica, Arial, sans-serif" text-anchor="end">created with nf-metro v0.5.4</text>
</svg>
