<?xml version="1.0" encoding="UTF-8"?>
<svg xmlns="http://www.w3.org/2000/svg" xmlns:xlink="http://www.w3.org/1999/xlink"
     width="593" height="366" viewBox="0 0 593 366">
<defs>
</defs>
<rect x="0" y="0" width="593" height="366" fill="#2b2b2b" />
<text x="60.0" y="30.0" font-size="24.0" fill="#ffffff" font-family="'Helvetica Neue', Helvetica, Arial, sans-serif" font-weight="bold" class="nf-metro-title">Simple Pipeline</text>
<path d="M377.0,243.0 L533.0,243.0" stroke="#2196F3" stroke-width="3.0" stroke-linecap="round" />
<path d="M176.0,203.0 L211.0,203.0 Q221.0,203.0,227.0,211.0 L245.0,235.0 Q251.0,243.0,261.0,243.0 L377.0,243.0" stroke="#2196F3" stroke-width="3.0" fill="none" stroke-linecap="round" stroke-linejoin="round" />
<path d="M281.0,203.0 L307.0,203.0 Q317.0,203.0,323.0,211.0 L341.0,235.0 Q347.0,243.0,357.0,243.0 L377.0,243.0" stroke="#2196F3" stroke-width="3.0" fill="none" stroke-linecap="round" stroke-linejoin="round" />
<path d="M176.0,200.0 L281.0,200.0" stroke="#4CAF50" stroke-width="3.0" stroke-linecap="round" />
<path d="M281.0,200.0 L307.0,200.0 Q317.0,200.0,323.0,192.0 L341.0,168.0 Q347.0,160.0,357.0,160.0 L377.0,160.0" stroke="#4CAF50" stroke-width="3.0" fill="none" stroke-linecap="round" stroke-linejoin="round" />
<path d="M80.0,163.0 L92.5,163.0 Q102.5,163.0,108.5,171.0 L126.5,195.0 Q132.5,203.0,142.5,203.0 L176.0,203.0" stroke="#2196F3" stroke-width="3.0" fill="none" stroke-linecap="round" stroke-linejoin="round" />
<path d="M437.0,163.0 L461.5,163.0 Q471.5,163.0,475.0112344158839,172.36329177569044 L497.9887655841161,233.63670822430956 Q501.5,243.0,511.5,243.0 L533.0,243.0" stroke="#2196F3" stroke-width="3.0" fill="none" stroke-linecap="round" stroke-linejoin="round" />
<path d="M80.0,160.0 L92.5,160.0 Q102.5,160.0,108.5,152.0 L126.5,128.0 Q132.5,120.0,142.5,120.0 L176.0,120.0" stroke="#4CAF50" stroke-width="3.0" fill="none" stroke-linecap="round" stroke-linejoin="round" />
<path d="M80.0,160.0 L92.5,160.0 Q102.5,160.0,108.5,168.0 L126.5,192.0 Q132.5,200.0,142.5,200.0 L176.0,200.0" stroke="#4CAF50" stroke-width="3.0" fill="none" stroke-linecap="round" stroke-linejoin="round" />
<path d="M377.0,160.0 L437.0,160.0" stroke="#4CAF50" stroke-width="3.0" stroke-linecap="round" />
<rect x="75.0" y="155.0" width="10.0" height="13.0" rx="5.0" ry="5.0" fill="#ffffff" stroke="#333333" stroke-width="1.5" />
<rect x="372.0" y="238.0" width="10.0" height="10.0" rx="5.0" ry="5.0" fill="#ffffff" stroke="#333333" stroke-width="1.5" />
<rect x="276.0" y="195.0" width="10.0" height="13.0" rx="5.0" ry="5.0" fill="#ffffff" stroke="#333333" stroke-width="1.5" />
<rect x="372.0" y="155.0" width="10.0" height="10.0" rx="5.0" ry="5.0" fill="#ffffff" stroke="#333333" stroke-width="1.5" />
<rect x="432.0" y="155.0" width="10.0" height="13.0" rx="5.0" ry="5.0" fill="#ffffff" stroke="#333333" stroke-width="1.5" />
<rect x="528.0" y="238.0" width="10.0" height="10.0" rx="5.0" ry="5.0" fill="#ffffff" stroke="#333333" stroke-width="1.5" />
<rect x="171.0" y="115.0" width="10.0" height="10.0" rx="5.0" ry="5.0" fill="#ffffff" stroke="#333333" stroke-width="1.5" />
<rect x="171.0" y="195.0" width="10.0" height="13.0" rx="5.0" ry="5.0" fill="#ffffff" stroke="#333333" stroke-width="1.5" />
<text x="80.0" y="174.0" font-size="13.0" fill="#e0e0e0" font-family="'Helvetica Neue', Helvetica, Arial, sans-serif" font-weight="bold" text-anchor="middle" dominant-baseline="hanging">Input</text>
<text x="176.0" y="106.0" font-size="13.0" fill="#e0e0e0" font-family="'Helvetica Neue', Helvetica, Arial, sans-serif" font-weight="bold" text-anchor="middle" dominant-baseline="auto">initqc</text>
<text x="176.0" y="186.0" font-size="13.0" fill="#e0e0e0" font-family="'Helvetica Neue', Helvetica, Arial, sans-serif" font-weight="bold" text-anchor="middle" dominant-baseline="auto">Preprocess</text>
<text x="281.0" y="214.0" font-size="13.0" fill="#e0e0e0" font-family="'Helvetica Neue', Helvetica, Arial, sans-serif" font-weight="bold" text-anchor="middle" dominant-baseline="hanging">Trimming</text>
<text x="377.0" y="146.0" font-size="13.0" fill="#e0e0e0" font-family="'Helvetica Neue', Helvetica, Arial, sans-serif" font-weight="bold" text-anchor="middle" dominant-baseline="auto">Alignment</text>
<text x="377.0" y="229.0" font-size="13.0" fill="#e0e0e0" font-family="'Helvetica Neue', Helvetica, Arial, sans-serif" font-weight="bold" text-anchor="middle" dominant-baseline="auto">FastQC</text>
<text x="437.0" y="174.0" font-size="13.0" fill="#e0e0e0" font-family="'Helvetica Neue', Helvetica, Arial, sans-serif" font-weight="bold" text-anchor="middle" dominant-baseline="hanging">Quantification</text>
<text x="533.0" y="229.0" font-size="13.0" fill="#e0e0e0" font-family="'Helvetica Neue', Helvetica, Arial, sans-serif" font-weight="bold" text-anchor="middle" dominant-baseline="auto">MultiQC</text>
<rect x="60.0" y="270.0" width="160.8" height="72.0" rx="6" ry="6" fill="rgba(0, 0, 0, 0.3)" />
<path d="M72.0,294.0 L96.0,294.0" stroke="#4CAF50" stroke-width="3.0" stroke-linecap="round" />
<text x="108.0" y="294.0" font-size="14.0" fill="#e0e0e0" font-family="'Helvetica Neue', Helvetica, Arial, sans-serif" dy="0.3em">Main</text>
<path d="M72.0,318.0 L96.0,318.0" stroke="#2196F3" stroke-width="3.0" stroke-linecap="round" />
<text x="108.0" y="318.0" font-size="14.0" fill="#e0e0e0" font-family="'Helvetica Neue', Helvetica, Arial, sans-serif" dy="0.3em">Quality Control</text>
<text x="563.0" y="358.0" font-size="8" fill="rgba(150, 150, 150, 0.6)" font-family="'Helvetica Neue', Helvetica, Arial, sans-serif" text-anchor="end">created with nf-metro v0.5.4</text>
</svg>
