<?xml version="1.0" encoding="UTF-8"?>
<svg xmlns="http://www.w3.org/2000/svg" xmlns:xlink="http://www.w3.org/1999/xlink"
     width="827" height="870" viewBox="0 0 827 870">
<defs>
</defs>
<style>@media (prefers-color-scheme: dark) {
    .nf-metro-section-label { fill: #d0d0d0; }
    .nf-metro-section-num-circle { fill: #777777; }
    .nf-metro-title { fill: #ffffff; }
}
</style>
<text x="60.0" y="30.0" font-size="26.0" fill="#111111" font-family="'Helvetica Neue', Helvetica, Arial, sans-serif" font-weight="bold" class="nf-metro-title">somatem pipeline</text>
<rect x="204.0" y="68.2" width="180.0" height="430.0" rx="8" ry="8" fill="#ededed" stroke="#e6e6e6" stroke-width="1.0" />
<circle cx="215.0" cy="53.2" r="11" fill="#333333" class="nf-metro-section-num-circle" />
<text x="215.0" y="53.2" font-size="12" fill="#ffffff" font-family="'Helvetica Neue', Helvetica, Arial, sans-serif" font-weight="bold" text-anchor="middle" dy="0.3em">1</text>
<text x="231.0" y="53.2" font-size="17.0" fill="#666666" font-family="'Helvetica Neue', Helvetica, Arial, sans-serif" font-weight="bold" dy="0.3em" class="nf-metro-section-label">Pre-processing</text>
<rect x="593.0" y="68.2" width="174.0" height="430.0" rx="8" ry="8" fill="#ededed" stroke="#e6e6e6" stroke-width="1.0" />
<circle cx="604.0" cy="53.2" r="11" fill="#333333" class="nf-metro-section-num-circle" />
<text x="604.0" y="53.2" font-size="12" fill="#ffffff" font-family="'Helvetica Neue', Helvetica, Arial, sans-serif" font-weight="bold" text-anchor="middle" dy="0.3em">2</text>
<text x="620.0" y="53.2" font-size="17.0" fill="#666666" font-family="'Helvetica Neue', Helvetica, Arial, sans-serif" font-weight="bold" dy="0.3em" class="nf-metro-section-label">Assembly</text>
<rect x="434.0" y="536.2" width="333.0" height="316.9999999999999" rx="8" ry="8" fill="#ededed" stroke="#e6e6e6" stroke-width="1.0" />
<circle cx="445.0" cy="521.2" r="11" fill="#333333" class="nf-metro-section-num-circle" />
<text x="445.0" y="521.2" font-size="12" fill="#ffffff" font-family="'Helvetica Neue', Helvetica, Arial, sans-serif" font-weight="bold" text-anchor="middle" dy="0.3em">3</text>
<text x="461.0" y="521.2" font-size="17.0" fill="#666666" font-family="'Helvetica Neue', Helvetica, Arial, sans-serif" font-weight="bold" dy="0.3em" class="nf-metro-section-label">Analysis</text>
<path d="M520.0,803.4 L577.5,803.4 Q587.5,803.4,588.9383740328302,793.5039866541279 L616.0616259671698,606.8960133458721 Q617.5,597.0,627.5,597.0 L649.0,597.0" stroke="#9C27B0" stroke-width="4.0" fill="none" stroke-linecap="round" stroke-linejoin="round" />
<path d="M520.0,731.6 L577.5,731.6 Q587.5,731.6,589.630191894625,721.8295198433202 L615.369808105375,603.7704801566798 Q617.5,594.0,627.5,594.0 L649.0,594.0" stroke="#2196F3" stroke-width="4.0" fill="none" stroke-linecap="round" stroke-linejoin="round" />
<path d="M434.0,700.2 L439.0,700.2 Q449.0,700.2,451.7914236295421,709.802497285625 L476.2085763704579,793.797502714375 Q479.0,803.4,489.0,803.4 L520.0,803.4" stroke="#9C27B0" stroke-width="4.0" fill="none" stroke-linecap="round" stroke-linejoin="round" />
<path d="M434.0,697.2 L439.0,697.2 Q449.0,697.2,455.5726286253734,704.7366141570949 L472.4273713746266,724.0633858429052 Q479.0,731.6,489.0,731.6 L520.0,731.6" stroke="#2196F3" stroke-width="4.0" fill="none" stroke-linecap="round" stroke-linejoin="round" />
<path d="M434.0,694.2 L439.0,694.2 Q449.0,694.2,455.5726286253734,686.6633858429052 L472.4273713746266,667.3366141570948 Q479.0,659.8,489.0,659.8 L520.0,659.8" stroke="#2b5a2d" stroke-width="4.0" fill="none" stroke-linecap="round" stroke-linejoin="round" />
<path d="M434.0,691.2 L439.0,691.2 Q449.0,691.2,451.7914236295421,681.5975027143751 L476.2085763704579,597.602497285625 Q479.0,588.0,489.0,588.0 L520.0,588.0" stroke="#4CAF50" stroke-width="4.0" fill="none" stroke-linecap="round" stroke-linejoin="round" />
<path d="M520.0,659.8 L577.5,659.8 Q587.5,659.8,591.4970024838944,650.6335409702687 L613.5029975161056,600.1664590297313 Q617.5,591.0,627.5,591.0 L649.0,591.0" stroke="#2b5a2d" stroke-width="4.0" fill="none" stroke-linecap="round" stroke-linejoin="round" />
<path d="M649.0,597.0 L709.0,597.0" stroke="#9C27B0" stroke-width="4.0" stroke-linecap="round" />
<path d="M649.0,594.0 L709.0,594.0" stroke="#2196F3" stroke-width="4.0" stroke-linecap="round" />
<path d="M649.0,591.0 L709.0,591.0" stroke="#2b5a2d" stroke-width="4.0" stroke-linecap="round" />
<path d="M520.0,588.0 L649.0,588.0" stroke="#4CAF50" stroke-width="4.0" stroke-linecap="round" />
<path d="M649.0,588.0 L709.0,588.0" stroke="#4CAF50" stroke-width="4.0" stroke-linecap="round" />
<path d="M329.0,508.2 L329.0,182.0 Q329.0,169.0,342.0,169.0 L593.0,169.0" stroke="#F44336" stroke-width="4.0" fill="none" stroke-linecap="round" stroke-linejoin="round" />
<path d="M338.0,508.2 L338.0,669.2 Q338.0,691.2,360.0,691.2 L434.0,691.2" stroke="#4CAF50" stroke-width="4.0" fill="none" stroke-linecap="round" stroke-linejoin="round" />
<path d="M335.0,508.2 L335.0,675.2 Q335.0,694.2,354.0,694.2 L434.0,694.2" stroke="#2b5a2d" stroke-width="4.0" fill="none" stroke-linecap="round" stroke-linejoin="round" />
<path d="M332.0,508.2 L332.0,681.2 Q332.0,697.2,348.0,697.2 L434.0,697.2" stroke="#2196F3" stroke-width="4.0" fill="none" stroke-linecap="round" stroke-linejoin="round" />
<path d="M326.0,508.2 L326.0,690.2 Q326.0,700.2,336.0,700.2 L434.0,700.2" stroke="#9C27B0" stroke-width="4.0" fill="none" stroke-linecap="round" stroke-linejoin="round" />
<path d="M329.0,498.2 L329.0,508.2" stroke="#F44336" stroke-width="4.0" stroke-linecap="round" />
<path d="M332.0,498.2 L332.0,508.2" stroke="#2196F3" stroke-width="4.0" stroke-linecap="round" />
<path d="M326.0,498.2 L326.0,508.2" stroke="#9C27B0" stroke-width="4.0" stroke-linecap="round" />
<path d="M338.0,498.2 L338.0,508.2" stroke="#4CAF50" stroke-width="4.0" stroke-linecap="round" />
<path d="M335.0,498.2 L335.0,508.2" stroke="#2b5a2d" stroke-width="4.0" stroke-linecap="round" />
<path d="M329.0,320.0 L329.0,498.2" stroke="#F44336" stroke-width="4.0" stroke-linecap="round" />
<path d="M338.0,320.0 L338.0,498.2" stroke="#4CAF50" stroke-width="4.0" stroke-linecap="round" />
<path d="M335.0,320.0 L335.0,498.2" stroke="#2b5a2d" stroke-width="4.0" stroke-linecap="round" />
<path d="M332.0,320.0 L332.0,498.2" stroke="#2196F3" stroke-width="4.0" stroke-linecap="round" />
<path d="M326.0,320.0 L326.0,498.2" stroke="#9C27B0" stroke-width="4.0" stroke-linecap="round" />
<path d="M338.0,280.0 L338.0,320.0" stroke="#4CAF50" stroke-width="4.0" stroke-linecap="round" />
<path d="M335.0,280.0 L335.0,320.0" stroke="#2b5a2d" stroke-width="4.0" stroke-linecap="round" />
<path d="M332.0,280.0 L332.0,320.0" stroke="#2196F3" stroke-width="4.0" stroke-linecap="round" />
<path d="M329.0,280.0 L329.0,320.0" stroke="#F44336" stroke-width="4.0" stroke-linecap="round" />
<path d="M326.0,280.0 L326.0,320.0" stroke="#9C27B0" stroke-width="4.0" stroke-linecap="round" />
<path d="M709.0,280.0 L709.0,320.0" stroke="#F44336" stroke-width="4.0" stroke-linecap="round" />
<path d="M338.0,240.0 L338.0,280.0" stroke="#4CAF50" stroke-width="4.0" stroke-linecap="round" />
<path d="M332.0,240.0 L332.0,280.0" stroke="#2196F3" stroke-width="4.0" stroke-linecap="round" />
<path d="M329.0,240.0 L329.0,280.0" stroke="#F44336" stroke-width="4.0" stroke-linecap="round" />
<path d="M326.0,240.0 L326.0,280.0" stroke="#9C27B0" stroke-width="4.0" stroke-linecap="round" />
<path d="M709.0,240.0 L709.0,280.0" stroke="#F44336" stroke-width="4.0" stroke-linecap="round" />
<path d="M338.0,200.0 L338.0,240.0" stroke="#4CAF50" stroke-width="4.0" stroke-linecap="round" />
<path d="M332.0,200.0 L332.0,240.0" stroke="#2196F3" stroke-width="4.0" stroke-linecap="round" />
<path d="M329.0,200.0 L329.0,240.0" stroke="#F44336" stroke-width="4.0" stroke-linecap="round" />
<path d="M326.0,200.0 L326.0,240.0" stroke="#9C27B0" stroke-width="4.0" stroke-linecap="round" />
<path d="M335.0,200.0 L335.0,280.0" stroke="#2b5a2d" stroke-width="4.0" stroke-linecap="round" />
<path d="M709.0,200.0 L709.0,240.0" stroke="#F44336" stroke-width="4.0" stroke-linecap="round" />
<path d="M593.0,169.0 L700.0,169.0 Q709.0,169.0,709.0,160.0 L709.0,160.0" stroke="#F44336" stroke-width="4.0" fill="none" stroke-linecap="round" stroke-linejoin="round" />
<path d="M338.0,160.0 L338.0,200.0" stroke="#4CAF50" stroke-width="4.0" stroke-linecap="round" />
<path d="M335.0,160.0 L335.0,200.0" stroke="#2b5a2d" stroke-width="4.0" stroke-linecap="round" />
<path d="M332.0,160.0 L332.0,200.0" stroke="#2196F3" stroke-width="4.0" stroke-linecap="round" />
<path d="M329.0,160.0 L329.0,200.0" stroke="#F44336" stroke-width="4.0" stroke-linecap="round" />
<path d="M326.0,160.0 L326.0,200.0" stroke="#9C27B0" stroke-width="4.0" stroke-linecap="round" />
<path d="M709.0,160.0 L709.0,200.0" stroke="#F44336" stroke-width="4.0" stroke-linecap="round" />
<path d="M110.0,132.0 L160.0,132.0" stroke="#9C27B0" stroke-width="4.0" stroke-linecap="round" />
<path d="M160.0,132.0 L316.0,132.0 Q326.0,132.0,326.0,142.0 L326.0,172.0" stroke="#9C27B0" stroke-width="4.0" fill="none" stroke-linecap="round" stroke-linejoin="round" />
<path d="M110.0,129.0 L160.0,129.0" stroke="#F44336" stroke-width="4.0" stroke-linecap="round" />
<path d="M160.0,129.0 L316.0,129.0 Q329.0,129.0,329.0,142.0 L329.0,169.0" stroke="#F44336" stroke-width="4.0" fill="none" stroke-linecap="round" stroke-linejoin="round" />
<path d="M110.0,126.0 L160.0,126.0" stroke="#2196F3" stroke-width="4.0" stroke-linecap="round" />
<path d="M160.0,126.0 L316.0,126.0 Q332.0,126.0,332.0,142.0 L332.0,166.0" stroke="#2196F3" stroke-width="4.0" fill="none" stroke-linecap="round" stroke-linejoin="round" />
<path d="M110.0,123.0 L160.0,123.0" stroke="#2b5a2d" stroke-width="4.0" stroke-linecap="round" />
<path d="M160.0,123.0 L316.0,123.0 Q335.0,123.0,335.0,142.0 L335.0,163.0" stroke="#2b5a2d" stroke-width="4.0" fill="none" stroke-linecap="round" stroke-linejoin="round" />
<path d="M110.0,120.0 L160.0,120.0" stroke="#4CAF50" stroke-width="4.0" stroke-linecap="round" />
<path d="M160.0,120.0 L316.0,120.0 Q338.0,120.0,338.0,142.0 L338.0,160.0" stroke="#4CAF50" stroke-width="4.0" fill="none" stroke-linecap="round" stroke-linejoin="round" />
<rect x="104.0" y="114.0" width="12.0" height="24.0" rx="6.0" ry="6.0" fill="#ffffff" stroke="#333333" stroke-width="2.0" />
<path d="M72.0,110.0 L90.0,110.0 L98.0,118.0 L98.0,140.0 Q98.0,142.0,96.0,142.0 L72.0,142.0 Q70.0,142.0,70.0,140.0 L70.0,112.0 Q70.0,110.0,72.0,110.0 Z" fill="#ffffff" stroke="#333333" stroke-width="1.5" stroke-linejoin="round" />
<path d="M90.0,110.0 L90.0,118.0 L98.0,118.0 Z" fill="#333333" opacity="0.15" stroke="none" />
<path d="M90.0,110.0 L90.0,118.0 L98.0,118.0" fill="none" stroke="#333333" stroke-width="0.8999999999999999" />
<text x="84.0" y="127.2" font-size="7.5" fill="#000000" font-family="'Helvetica Neue', Helvetica, Arial, sans-serif" font-weight="bold" text-anchor="middle" dy="0.3em">FASTQ</text>
<rect x="320.0" y="154.0" width="24.0" height="12.0" rx="6.0" ry="6.0" fill="#ffffff" stroke="#333333" stroke-width="2.0" />
<rect x="320.0" y="194.0" width="24.0" height="12.0" rx="6.0" ry="6.0" fill="#ffffff" stroke="#333333" stroke-width="2.0" />
<rect x="320.0" y="234.0" width="24.0" height="12.0" rx="6.0" ry="6.0" fill="#ffffff" stroke="#333333" stroke-width="2.0" />
<rect x="320.0" y="274.0" width="24.0" height="12.0" rx="6.0" ry="6.0" fill="#ffffff" stroke="#333333" stroke-width="2.0" />
<rect x="320.0" y="314.0" width="24.0" height="12.0" rx="6.0" ry="6.0" fill="#ffffff" stroke="#333333" stroke-width="2.0" />
<path d="M340.0,310.0 L358.0,310.0 L366.0,318.0 L366.0,340.0 Q366.0,342.0,364.0,342.0 L340.0,342.0 Q338.0,342.0,338.0,340.0 L338.0,312.0 Q338.0,310.0,340.0,310.0 Z" fill="#ffffff" stroke="#333333" stroke-width="1.5" stroke-linejoin="round" />
<path d="M358.0,310.0 L358.0,318.0 L366.0,318.0 Z" fill="#333333" opacity="0.15" stroke="none" />
<path d="M358.0,310.0 L358.0,318.0 L366.0,318.0" fill="none" stroke="#333333" stroke-width="0.8999999999999999" />
<text x="352.0" y="327.2" font-size="7.5" fill="#000000" font-family="'Helvetica Neue', Helvetica, Arial, sans-serif" font-weight="bold" text-anchor="middle" dy="0.3em">FASTQ</text>
<rect x="712.0" y="154.0" width="12.0" height="12.0" rx="6.0" ry="6.0" fill="#ffffff" stroke="#333333" stroke-width="2.0" />
<rect x="712.0" y="194.0" width="12.0" height="12.0" rx="6.0" ry="6.0" fill="#ffffff" stroke="#333333" stroke-width="2.0" />
<rect x="712.0" y="234.0" width="12.0" height="12.0" rx="6.0" ry="6.0" fill="#ffffff" stroke="#333333" stroke-width="2.0" />
<rect x="712.0" y="274.0" width="12.0" height="12.0" rx="6.0" ry="6.0" fill="#ffffff" stroke="#333333" stroke-width="2.0" />
<rect x="712.0" y="314.0" width="12.0" height="12.0" rx="6.0" ry="6.0" fill="#ffffff" stroke="#333333" stroke-width="2.0" />
<path d="M723.0,313.0 L741.0,313.0 L749.0,321.0 L749.0,343.0 Q749.0,345.0,747.0,345.0 L723.0,345.0 Q721.0,345.0,721.0,343.0 L721.0,315.0 Q721.0,313.0,723.0,313.0 Z" fill="#ffffff" stroke="#333333" stroke-width="1.5" stroke-linejoin="round" />
<path d="M741.0,313.0 L741.0,321.0 L749.0,321.0 Z" fill="#333333" opacity="0.15" stroke="none" />
<path d="M741.0,313.0 L741.0,321.0 L749.0,321.0" fill="none" stroke="#333333" stroke-width="0.8999999999999999" />
<text x="735.0" y="330.2" font-size="7.5" fill="#000000" font-family="'Helvetica Neue', Helvetica, Arial, sans-serif" font-weight="bold" text-anchor="middle" dy="0.3em">HTML</text>
<rect x="514.0" y="797.4" width="12.0" height="12.0" rx="6.0" ry="6.0" fill="#ffffff" stroke="#333333" stroke-width="2.0" />
<rect x="514.0" y="725.6" width="12.0" height="12.0" rx="6.0" ry="6.0" fill="#ffffff" stroke="#333333" stroke-width="2.0" />
<rect x="514.0" y="582.0" width="12.0" height="12.0" rx="6.0" ry="6.0" fill="#ffffff" stroke="#333333" stroke-width="2.0" />
<rect x="514.0" y="653.8" width="12.0" height="12.0" rx="6.0" ry="6.0" fill="#ffffff" stroke="#333333" stroke-width="2.0" />
<rect x="703.0" y="582.0" width="12.0" height="21.0" fill="#ffffff" stroke="#333333" stroke-width="2.0" />
<path d="M723.0,576.5 L741.0,576.5 L749.0,584.5 L749.0,606.5 Q749.0,608.5,747.0,608.5 L723.0,608.5 Q721.0,608.5,721.0,606.5 L721.0,578.5 Q721.0,576.5,723.0,576.5 Z" fill="#ffffff" stroke="#333333" stroke-width="1.5" stroke-linejoin="round" />
<path d="M741.0,576.5 L741.0,584.5 L749.0,584.5 Z" fill="#333333" opacity="0.15" stroke="none" />
<path d="M741.0,576.5 L741.0,584.5 L749.0,584.5" fill="none" stroke="#333333" stroke-width="0.8999999999999999" />
<text x="735.0" y="593.7" font-size="7.5" fill="#000000" font-family="'Helvetica Neue', Helvetica, Arial, sans-serif" font-weight="bold" text-anchor="middle" dy="0.3em">HTML</text>
<rect x="643.0" y="582.0" width="12.0" height="21.0" rx="6.0" ry="6.0" fill="#ffffff" stroke="#333333" stroke-width="2.0" />
<text x="309.0" y="151.6" font-size="14.0" fill="#333333" font-family="'Helvetica Neue', Helvetica, Arial, sans-serif" font-weight="bold" text-anchor="end" dominant-baseline="central"><tspan x="309.0" dy="0em">Read QC</tspan><tspan x="309.0" dy="1.2em">NanoPlot</tspan></text>
<text x="520.0" y="599.0" font-size="14.0" fill="#333333" font-family="'Helvetica Neue', Helvetica, Arial, sans-serif" font-weight="bold" text-anchor="middle" dominant-baseline="hanging"><tspan x="520.0" dy="0em">Taxonomic</tspan><tspan x="520.0" dy="1.2em">Lemur, Magnet</tspan></text>
<text x="520.0" y="670.8" font-size="14.0" fill="#333333" font-family="'Helvetica Neue', Helvetica, Arial, sans-serif" font-weight="bold" text-anchor="middle" dominant-baseline="hanging"><tspan x="520.0" dy="0em">Taxonomic</tspan><tspan x="520.0" dy="1.2em">Emu (16S)</tspan></text>
<text x="520.0" y="742.6" font-size="14.0" fill="#333333" font-family="'Helvetica Neue', Helvetica, Arial, sans-serif" font-weight="bold" text-anchor="middle" dominant-baseline="hanging"><tspan x="520.0" dy="0em">Pathogen screen</tspan><tspan x="520.0" dy="1.2em">SeqScreen</tspan></text>
<text x="698.0" y="151.6" font-size="14.0" fill="#333333" font-family="'Helvetica Neue', Helvetica, Arial, sans-serif" font-weight="bold" text-anchor="end" dominant-baseline="central"><tspan x="698.0" dy="0em">Assemble</tspan><tspan x="698.0" dy="1.2em">metaFlye</tspan></text>
<text x="520.0" y="814.4" font-size="14.0" fill="#333333" font-family="'Helvetica Neue', Helvetica, Arial, sans-serif" font-weight="bold" text-anchor="middle" dominant-baseline="hanging"><tspan x="520.0" dy="0em">SV detect</tspan><tspan x="520.0" dy="1.2em">rhea</tspan></text>
<text x="110.0" y="103.0" font-size="14.0" fill="#333333" font-family="'Helvetica Neue', Helvetica, Arial, sans-serif" font-weight="bold" text-anchor="middle" dominant-baseline="auto">RAW READS</text>
<text x="309.0" y="191.6" font-size="14.0" fill="#333333" font-family="'Helvetica Neue', Helvetica, Arial, sans-serif" font-weight="bold" text-anchor="end" dominant-baseline="central"><tspan x="309.0" dy="0em">Filter/Trim</tspan><tspan x="309.0" dy="1.2em">chopper</tspan></text>
<text x="649.0" y="574.0" font-size="14.0" fill="#333333" font-family="'Helvetica Neue', Helvetica, Arial, sans-serif" font-weight="bold" text-anchor="middle" dominant-baseline="auto">MultiQC</text>
<text x="698.0" y="191.6" font-size="14.0" fill="#333333" font-family="'Helvetica Neue', Helvetica, Arial, sans-serif" font-weight="bold" text-anchor="end" dominant-baseline="central"><tspan x="698.0" dy="0em">Bin</tspan><tspan x="698.0" dy="1.2em">Semibin2</tspan></text>
<text x="310.5" y="231.6" font-size="14.0" fill="#333333" font-family="'Helvetica Neue', Helvetica, Arial, sans-serif" font-weight="bold" text-anchor="end" dominant-baseline="central"><tspan x="310.5" dy="0em">Remove host</tspan><tspan x="310.5" dy="1.2em">hostile</tspan></text>
<text x="698.0" y="231.6" font-size="14.0" fill="#333333" font-family="'Helvetica Neue', Helvetica, Arial, sans-serif" font-weight="bold" text-anchor="end" dominant-baseline="central"><tspan x="698.0" dy="0em">Genome QC</tspan><tspan x="698.0" dy="1.2em">CheckM2</tspan></text>
<text x="309.0" y="271.6" font-size="14.0" fill="#333333" font-family="'Helvetica Neue', Helvetica, Arial, sans-serif" font-weight="bold" text-anchor="end" dominant-baseline="central"><tspan x="309.0" dy="0em">Clean QC</tspan><tspan x="309.0" dy="1.2em">NanoPlot</tspan></text>
<text x="698.0" y="271.6" font-size="14.0" fill="#333333" font-family="'Helvetica Neue', Helvetica, Arial, sans-serif" font-weight="bold" text-anchor="end" dominant-baseline="central"><tspan x="698.0" dy="0em">Annotate</tspan><tspan x="698.0" dy="1.2em">Bakta</tspan></text>
<text x="309.0" y="320.0" font-size="14.0" fill="#333333" font-family="'Helvetica Neue', Helvetica, Arial, sans-serif" font-weight="bold" text-anchor="end" dominant-baseline="central">CLEAN READS</text>
<text x="698.0" y="320.0" font-size="14.0" fill="#333333" font-family="'Helvetica Neue', Helvetica, Arial, sans-serif" font-weight="bold" text-anchor="end" dominant-baseline="central">circos plot</text>
<rect x="52.0" y="702.2" width="236.64" height="144.0" rx="6" ry="6" fill="rgba(255, 255, 255, 0.8)" />
<path d="M64.0,726.2 L88.0,726.2" stroke="#4CAF50" stroke-width="4.0" stroke-linecap="round" />
<text x="100.0" y="726.2" font-size="16.0" fill="#333333" font-family="'Helvetica Neue', Helvetica, Arial, sans-serif" dy="0.3em">taxonomic profiling</text>
<path d="M64.0,750.2 L88.0,750.2" stroke="#2b5a2d" stroke-width="4.0" stroke-linecap="round" />
<text x="100.0" y="750.2" font-size="16.0" fill="#333333" font-family="'Helvetica Neue', Helvetica, Arial, sans-serif" dy="0.3em">16S taxonomic profiling</text>
<path d="M64.0,774.2 L88.0,774.2" stroke="#2196F3" stroke-width="4.0" stroke-linecap="round" />
<text x="100.0" y="774.2" font-size="16.0" fill="#333333" font-family="'Helvetica Neue', Helvetica, Arial, sans-serif" dy="0.3em">functional annotation</text>
<path d="M64.0,798.2 L88.0,798.2" stroke="#F44336" stroke-width="4.0" stroke-linecap="round" />
<text x="100.0" y="798.2" font-size="16.0" fill="#333333" font-family="'Helvetica Neue', Helvetica, Arial, sans-serif" dy="0.3em">assembly</text>
<path d="M64.0,822.2 L88.0,822.2" stroke="#9C27B0" stroke-width="4.0" stroke-linecap="round" />
<text x="100.0" y="822.2" font-size="16.0" fill="#333333" font-family="'Helvetica Neue', Helvetica, Arial, sans-serif" dy="0.3em">longitudinal analysis</text>
<text x="797.0" y="862.0" font-size="8" fill="rgba(150, 150, 150, 0.6)" font-family="'Helvetica Neue', Helvetica, Arial, sans-serif" text-anchor="end">created with nf-metro v0.5.4</text>
</svg>
